#N canvas 591 22 544 508 10;
#X declare -lib moocow;
#X obj 35 7 tgl 15 0 empty empty empty 17 7 0 10 -262144 -1 -1 0 1
;
#X obj 8 209 drunk;
#X obj 53 210 drunk;
#X obj 92 400 httpget;
#X obj 124 114 delay 500;
#X obj 127 157 drunk;
#X obj 172 158 drunk;
#X obj 125 186 pack 0 0;
#X obj 245 121 drunk;
#X obj 290 122 drunk;
#X obj 289 96 delay 1000;
#X obj 168 395 print;
#X obj 333 120 drunk;
#X obj 243 150 pack 0 0 0;
#X obj 69 237 drunk;
#X obj 5 264 pack 0 0 0;
#X obj 35 38 metro 15000;
#X msg 31 301 http://localhost/data/smells/add/min:\$1/max:\$2/other:\$3
;
#X msg 133 226 http://localhost/data/sights/add/window:0.\$2/door:0.\$1
;
#X msg 200 180 http://localhost/data/sounds/add/outside:\$1/inside:\$2/flipside:\$3
;
#X connect 0 0 16 0;
#X connect 1 0 15 0;
#X connect 2 0 15 1;
#X connect 4 0 5 0;
#X connect 4 0 6 0;
#X connect 5 0 7 0;
#X connect 6 0 7 1;
#X connect 7 0 18 0;
#X connect 8 0 13 0;
#X connect 9 0 13 1;
#X connect 10 0 8 0;
#X connect 10 0 9 0;
#X connect 10 0 12 0;
#X connect 12 0 13 2;
#X connect 13 0 19 0;
#X connect 14 0 15 2;
#X connect 15 0 17 0;
#X connect 16 0 2 0;
#X connect 16 0 1 0;
#X connect 16 0 4 0;
#X connect 16 0 10 0;
#X connect 16 0 14 0;
#X connect 17 0 3 0;
#X connect 17 0 11 0;
#X connect 18 0 3 0;
#X connect 18 0 11 0;
#X connect 19 0 3 0;
#X connect 19 0 11 0;
