#N canvas 591 22 450 300 10;
#X declare -lib moocow;
#X obj 35 7 tgl 15 0 empty empty empty 17 7 0 10 -262144 -1 -1 1 1
;
#X obj 32 180 drunk;
#X obj 77 181 drunk;
#X obj 120 271 httpget;
#X obj 30 209 pack 0 0;
#X obj 124 114 delay 500;
#X obj 127 157 drunk;
#X obj 172 158 drunk;
#X obj 125 186 pack 0 0;
#X msg 31 238 http://localhost/data/smells/add/left:\$1/right:\$2;
#X obj 245 121 drunk;
#X obj 290 122 drunk;
#X obj 35 38 metro 1500;
#X obj 289 96 delay 1000;
#X obj 196 266 print;
#X msg 126 215 http://localhost/data/sights/add/window:0.\$2/door:0.\$1
;
#X obj 333 120 drunk;
#X msg 200 180 http://localhost/data/sounds/add/outside:\$1/inside:\$2/flipside:\$3
;
#X obj 243 150 pack 0 0 0;
#X connect 0 0 12 0;
#X connect 1 0 4 0;
#X connect 2 0 4 1;
#X connect 4 0 9 0;
#X connect 5 0 6 0;
#X connect 5 0 7 0;
#X connect 6 0 8 0;
#X connect 7 0 8 1;
#X connect 8 0 15 0;
#X connect 9 0 3 0;
#X connect 9 0 14 0;
#X connect 10 0 18 0;
#X connect 11 0 18 1;
#X connect 12 0 2 0;
#X connect 12 0 1 0;
#X connect 12 0 5 0;
#X connect 12 0 13 0;
#X connect 13 0 10 0;
#X connect 13 0 11 0;
#X connect 13 0 16 0;
#X connect 15 0 3 0;
#X connect 15 0 14 0;
#X connect 16 0 18 2;
#X connect 17 0 3 0;
#X connect 17 0 14 0;
#X connect 18 0 17 0;
